<svg xmlns="http://www.w3.org/2000/svg" version="1.1" xmlns:xlink="http://www.w3.org/1999/xlink" xmlns:svgjs="http://svgjs.dev/svgjs" width="1000" height="257" viewBox="0 0 1000 257"><g transform="matrix(1,0,0,1,-0.6060606060606233,0.4571480458171209)"><svg viewBox="0 0 396 102" data-background-color="#89939e" preserveAspectRatio="xMidYMid meet" height="257" width="1000" xmlns="http://www.w3.org/2000/svg" xmlns:xlink="http://www.w3.org/1999/xlink"><defs></defs><g id="tight-bounds" transform="matrix(1,0,0,1,0.2400000000000091,-0.033962905218402284)"><svg viewBox="0 0 395.52 102.06792500593568" height="102.06792500593568" width="395.52"><g><svg viewBox="0 0 397.4975999999999 102.57826463096534" height="102.06792500593568" width="395.52"><g><rect width="397.4975999999999" height="3.1418367639294797" x="0" y="56.37250484815872" fill="#ffffff" opacity="1" stroke-width="0" stroke="transparent" fill-opacity="1" class="rect-o-0" data-fill-palette-color="secondary" rx="1%" id="o-0" data-palette-color="#ffffff"></rect></g><g transform="matrix(1,0,0,1,0.9887999999999693,67.73904518258422)"><svg viewBox="0 0 395.52 34.839219448381115" height="34.839219448381115" width="395.52"><g><svg viewBox="0 0 395.52 34.839219448381115" height="34.839219448381115" width="395.52"><g><svg viewBox="0 0 395.52 34.839219448381115" height="34.839219448381115" width="395.52"><g transform="matrix(1,0,0,1,0,0)"><svg width="395.52" viewBox="-0.39000001549720764 -37.9900016784668 447.8700256347656 39.45000076293945" height="34.839219448381115" data-palette-color="#ffffff"><path d="M-0.39-29.25L-0.39-29.25Q-0.39-29.69-0.34-30.55-0.29-31.42-0.29-31.74L-0.29-31.74Q-0.29-31.86-0.34-32.62-0.39-33.37-0.39-33.94L-0.39-33.94Q-0.39-36.52 0.1-36.52L0.1-36.52Q0.29-36.52 0.44-36.47L0.44-36.47Q5.54-36.47 15.56-36.6 25.59-36.72 30.57-36.72L30.57-36.72Q31.81-36.72 32.14-36.5 32.47-36.28 32.47-35.64L32.47-35.64 32.47-34.96Q32.47-33.69 32.5-31.21 32.52-28.74 32.52-27.44L32.52-27.44Q32.52-26.17 31.84-26.17L31.84-26.17Q30.47-26.17 27.76-26.22 25.05-26.27 23.68-26.27L23.68-26.27 23.68-0.1Q23.51 0.63 22.85 0.68L22.85 0.68Q22 0.68 20.36 0.66 18.73 0.63 17.87 0.63L17.87 0.63Q17.82 0.63 17.77 0.68L17.77 0.68Q16.7 0.68 14.76 0.66 12.82 0.63 11.87 0.63L11.87 0.63 10.4 0.63Q9.91 0.68 8.98 0.68L8.98 0.68 8.01-0.49Q8.01-4.2 8.25-11.52 8.5-18.85 8.5-22.56L8.5-22.56Q8.5-22.73 8.48-23.12 8.47-23.51 8.47-23.75 8.47-24 8.44-24.37 8.4-24.73 8.31-24.96 8.23-25.2 8.11-25.43 7.98-25.66 7.78-25.77 7.57-25.88 7.28-25.88L7.28-25.88 0.29-25.88Q-0.39-26.07-0.39-29.25ZM28.27 0L28.27 0Q29.78-5.59 31.61-11.35 33.44-17.11 36.17-25.13 38.89-33.15 39.89-36.23L39.89-36.23Q40.18-36.72 40.28-36.82L40.28-36.82 44.38-36.82Q45.82-36.82 48.63-36.87 51.44-36.91 52.88-36.91L52.88-36.91 56.98-36.91Q57.35-36.91 57.59-36.9 57.83-36.89 58.18-36.84 58.52-36.79 58.73-36.69 58.93-36.6 59.08-36.4 59.23-36.21 59.23-35.94L59.23-35.94 70.48-0.27Q70.48 0.22 70.13 0.4 69.77 0.59 68.8 0.59L68.8 0.59 66.55 0.59Q65.57 0.59 63.64 0.61 61.72 0.63 60.74 0.63L60.74 0.63Q60.45 0.63 59.56 0.67 58.66 0.71 58.05 0.7 57.44 0.68 56.7 0.62 55.95 0.56 55.5 0.35 55.05 0.15 54.93-0.2L54.93-0.2 54.93-1.81Q54.69-3.03 54.07-4.05 53.46-5.08 52.78-5.08L52.78-5.08 44.38-5.08 43.11 0.1Q42.84 0.68 40.38 0.68L40.38 0.68 38.43 0.68Q37.38 0.68 35.3 0.76 33.23 0.83 32.18 0.83L32.18 0.83 31.49 0.83Q31.1 0.83 30.26 0.85 29.42 0.88 28.95 0.88L28.95 0.88Q28.76 0.68 28.27 0ZM47.17-23.29L45.21-14.82 45.9-13.67 47.51-13.67Q49.46-13.67 51.08-13.9 52.71-14.14 52.71-14.65L52.71-14.65 49.56-28.71Q49.12-28.71 48.37-27.05 47.63-25.39 47.17-23.29L47.17-23.29ZM87.2 1.46L87.2 1.46Q84.32 1.34 82.03 0.96 79.73 0.59 77.6-0.26 75.46-1.1 74.01-2.38 72.55-3.66 71.59-5.66 70.62-7.67 70.41-10.3L70.41-10.3Q70.41-10.77 70.89-10.84L70.89-10.84Q71.04-10.79 71.38-10.79L71.38-10.79Q73.41-10.79 77.53-10.89 81.66-10.99 83.69-10.99L83.69-10.99Q84.2-10.99 84.49-10.66 84.79-10.33 84.97-9.85 85.15-9.38 85.41-8.9 85.66-8.42 86.29-8.09 86.91-7.76 87.89-7.76L87.89-7.76Q89.08-7.76 90-8.44 90.91-9.11 90.91-10.25L90.91-10.25Q90.91-11.01 90.13-11.65 89.35-12.28 88.07-12.68 86.79-13.09 85.63-13.37 84.47-13.65 83.25-13.85 82.03-14.06 81.83-14.11L81.83-14.11Q75.9-15.72 73.3-18.12 70.7-20.51 70.7-24.66L70.7-24.66Q70.7-27.59 71.77-29.92 72.85-32.25 74.58-33.73 76.31-35.21 78.68-36.19 81.05-37.18 83.47-37.59 85.88-37.99 88.47-37.99L88.47-37.99Q95.33-37.99 99.41-35.45L99.41-35.45Q100.9-33.96 101.59-33.19 102.29-32.42 102.94-31.4 103.58-30.37 103.84-29.38 104.1-28.39 104.19-26.95L104.19-26.95 103.32-26.07Q98.31-25.88 92.08-25.88L92.08-25.88Q91.3-25.88 90.83-26.05 90.35-26.22 90.19-26.49 90.03-26.76 89.88-27.05 89.72-27.34 89.58-27.61 89.45-27.88 89.02-28.05 88.59-28.22 87.89-28.22L87.89-28.22Q87.69-28.22 87.26-28.15 86.84-28.08 86.26-27.92 85.69-27.76 85.27-27.43 84.86-27.1 84.86-26.66L84.86-26.66Q84.86-26.12 85.41-25.68 85.96-25.24 86.57-25.05 87.18-24.85 88.08-24.62 88.98-24.39 89.2-24.32L89.2-24.32Q94.53-22.97 95.55-22.66L95.55-22.66Q100.9-20.97 103.12-18.24L103.12-18.24Q105.17-15.7 105.17-11.87L105.17-11.87Q105.17-9.55 104.57-7.64 103.97-5.74 103-4.42 102.02-3.1 100.56-2.08 99.09-1.05 97.59-0.44 96.09 0.17 94.18 0.59 92.28 1 90.68 1.18 89.08 1.37 87.2 1.46ZM120.31 0.78L109.56 0.78Q109.03 0.78 108.74 0.67 108.46 0.56 108.38 0.42 108.29 0.27 108.1-0.15L108.1-0.15 108.1-34.86Q108.1-35.4 108.11-35.64 108.12-35.89 108.2-36.22 108.27-36.55 108.43-36.68 108.59-36.82 108.88-36.91 109.17-37.01 109.61-37.01L109.61-37.01 119.62-37.01Q123.14-37.01 123.14-36.13L123.14-36.13 123.14-36.08Q123.04-27 123.04-22.56L123.04-22.56 129.9-36.84 134.95-36.82Q145.31-36.82 145.31-36.33L145.31-36.33Q145.31-36.23 145.21-36.23L145.21-36.23Q140.47-27.69 135.59-19.24L135.59-19.24 135.59-18.55 136.59-17.92 146.79-0.37Q146.79 0.02 146.23 0.49L146.23 0.49 130.56 0.49 123.58-13.13Q123.43-11.79 123.36-9.23 123.28-6.67 123.23-5.86L123.23-5.86 123.23-0.1Q123.06 0.78 120.31 0.78L120.31 0.78ZM212.34-9.13L212.34-9.13Q212.34-8.69 212.39-7.78 212.44-6.86 212.46-6.03 212.49-5.2 212.5-4.19 212.51-3.17 212.43-2.36 212.34-1.54 212.17-0.82 212-0.1 211.65 0.29 211.29 0.68 210.78 0.68L210.78 0.68 199.65 0.68Q198.47-0.22 198.47-6.05L198.47-6.05Q198.47-8.18 198.5-11.17 198.52-14.16 198.52-15.43L198.52-15.43 198.52-17.14Q198.52-17.36 198.49-17.98 198.45-18.6 198.47-18.95L198.47-18.95Q197.5-15.41 196.08-8.81 194.67-2.22 194.13 0L194.13 0Q193.88 0.68 191.88 0.68L191.88 0.68 183.24 0.68Q181.65 0.68 181.38-0.15L181.38-0.15 179.04-10.35Q178.72-11.91 178.34-13.6 177.97-15.28 177.45-17.43 176.94-19.58 176.7-20.61L176.7-20.61Q176.4-12.79 176.4-8.69L176.4-8.69 176.4-4.39Q176.4-1.51 176.45-0.05L176.45-0.05Q176.31 0.49 175.92 0.49L175.92 0.49 173.62 0.49Q172.18 0.49 169.4 0.51 166.61 0.54 165.17 0.54L165.17 0.54Q163.85 0.54 163.85 0.1L163.85 0.1 163.85-36.13Q163.85-36.35 163.96-36.51 164.07-36.67 164.31-36.76 164.54-36.84 164.76-36.89 164.98-36.94 165.32-36.95 165.66-36.96 165.88-36.98 166.1-36.99 166.44-36.98 166.78-36.96 166.88-36.96L166.88-36.96 169.76-36.96Q176.72-36.96 179.57-36.77 182.41-36.57 183.92-36.57L183.92-36.57Q184.51-33.3 185.78-26.86L185.78-26.86 187.63-17.14 191.54-36.87Q191.54-36.87 191.74-36.82 191.93-36.77 192.03-36.77L192.03-36.77Q194.64-36.77 199.74-36.84 204.85-36.91 207.46-36.91L207.46-36.91 211.07-36.91Q211.76-36.84 211.76-35.55L211.76-35.55Q212.29-11.89 212.34-9.13ZM213.22 0L213.22 0Q214.73-5.59 216.56-11.35 218.39-17.11 221.12-25.13 223.84-33.15 224.84-36.23L224.84-36.23Q225.13-36.72 225.23-36.82L225.23-36.82 229.33-36.82Q230.77-36.82 233.58-36.87 236.39-36.91 237.83-36.91L237.83-36.91 241.93-36.91Q242.29-36.91 242.54-36.9 242.78-36.89 243.12-36.84 243.47-36.79 243.67-36.69 243.88-36.6 244.03-36.4 244.17-36.21 244.17-35.94L244.17-35.94 255.43-0.27Q255.43 0.22 255.08 0.4 254.72 0.59 253.74 0.59L253.74 0.59 251.5 0.59Q250.52 0.59 248.59 0.61 246.66 0.63 245.69 0.63L245.69 0.63Q245.4 0.63 244.5 0.67 243.61 0.71 243 0.7 242.39 0.68 241.65 0.62 240.9 0.56 240.45 0.35 240 0.15 239.88-0.2L239.88-0.2 239.88-1.81Q239.63-3.03 239.02-4.05 238.41-5.08 237.73-5.08L237.73-5.08 229.33-5.08 228.06 0.1Q227.79 0.68 225.33 0.68L225.33 0.68 223.37 0.68Q222.32 0.68 220.25 0.76 218.17 0.83 217.12 0.83L217.12 0.83 216.44 0.83Q216.05 0.83 215.21 0.85 214.36 0.88 213.9 0.88L213.9 0.88Q213.71 0.68 213.22 0ZM232.11-23.29L230.16-14.82 230.84-13.67 232.46-13.67Q234.41-13.67 236.03-13.9 237.66-14.14 237.66-14.65L237.66-14.65 234.51-28.71Q234.07-28.71 233.32-27.05 232.58-25.39 232.11-23.29L232.11-23.29ZM257.4 0.68L256.33 0.1 256.33-10.94Q256.28-16.99 256.72-34.03L256.72-34.03 256.72-36.04Q256.72-36.57 256.92-36.67L256.92-36.67 273.71-36.67Q273.96-36.67 274.7-34.81 275.45-32.96 276.51-30.04 277.57-27.12 278.01-26.03L278.01-26.03 281.43-17.09 281.43-26.56Q281.43-27.78 281.49-31.04 281.55-34.3 281.53-36.13L281.53-36.13Q281.53-36.82 285.43-36.82L285.43-36.82Q286.65-36.82 288.78-36.77 290.9-36.72 291.39-36.72L291.39-36.72 293.24-36.72Q293.63-36.72 293.63-36.57L293.63-36.57Q293.78-29.79 293.78-17.14L293.78-17.14 293.78-0.2Q293.61 0.44 292.22 0.44L292.22 0.44 291.58 0.44Q290.31 0.44 287.85 0.49 285.38 0.54 284.11 0.54L284.11 0.54 276.94 0.54Q276.59 0.42 275.52-2.54L275.52-2.54Q274.37-5.74 272.1-11.79 269.83-17.85 269.56-18.55L269.56-18.55Q269.56-17.11 269.54-14.26 269.51-11.4 269.51-9.96L269.51-9.96Q269.51-8.89 269.56-6.74 269.61-4.59 269.61-3.52L269.61-3.52 269.61-0.44Q269.61 0.68 268.63 0.68L268.63 0.68 257.4 0.68ZM293.63-36.52L293.63-36.62 293.63-36.52ZM295.34 0L295.34 0Q296.86-5.59 298.69-11.35 300.52-17.11 303.24-25.13 305.96-33.15 306.96-36.23L306.96-36.23Q307.26-36.72 307.35-36.82L307.35-36.82 311.45-36.82Q312.9-36.82 315.7-36.87 318.51-36.91 319.95-36.91L319.95-36.91 324.05-36.91Q324.42-36.91 324.66-36.9 324.91-36.89 325.25-36.84 325.59-36.79 325.8-36.69 326.01-36.6 326.15-36.4 326.3-36.21 326.3-35.94L326.3-35.94 337.55-0.27Q337.55 0.22 337.2 0.4 336.85 0.59 335.87 0.59L335.87 0.59 333.62 0.59Q332.65 0.59 330.72 0.61 328.79 0.63 327.81 0.63L327.81 0.63Q327.52 0.63 326.63 0.67 325.74 0.71 325.13 0.7 324.52 0.68 323.77 0.62 323.03 0.56 322.58 0.35 322.12 0.15 322-0.2L322-0.2 322-1.81Q321.76-3.03 321.15-4.05 320.54-5.08 319.85-5.08L319.85-5.08 311.45-5.08 310.19 0.1Q309.92 0.68 307.45 0.68L307.45 0.68 305.5 0.68Q304.45 0.68 302.37 0.76 300.3 0.83 299.25 0.83L299.25 0.83 298.56 0.83Q298.17 0.83 297.33 0.85 296.49 0.88 296.02 0.88L296.02 0.88Q295.83 0.68 295.34 0ZM314.24-23.29L312.28-14.82 312.97-13.67 314.58-13.67Q316.53-13.67 318.16-13.9 319.78-14.14 319.78-14.65L319.78-14.65 316.63-28.71Q316.19-28.71 315.45-27.05 314.7-25.39 314.24-23.29L314.24-23.29ZM337.53-18.26L337.53-18.26Q337.53-21.63 338.28-24.44 339.04-27.25 340.3-29.2 341.55-31.15 343.32-32.67 345.09-34.18 346.97-35.1 348.85-36.01 351.02-36.6 353.18-37.18 355.06-37.39 356.94-37.6 358.86-37.6L358.86-37.6Q360.28-37.6 361.64-37.48 362.99-37.35 364.69-37.05 366.38-36.74 367.86-36.11 369.34-35.47 370.69-34.56 372.05-33.64 373.05-32.19 374.05-30.74 374.49-28.91L374.49-28.91Q374.61-28.2 374.98-24.9L374.98-24.9Q374.88-24.17 373.42-24.17L373.42-24.17Q371.32-24.17 367.31-24.27 363.31-24.37 361.31-24.37L361.31-24.37Q361.01-24.46 360.84-24.76 360.67-25.05 360.61-25.39 360.55-25.73 360.41-26.12 360.28-26.51 360.07-26.82 359.87-27.12 359.34-27.33 358.82-27.54 358.03-27.54L358.03-27.54Q357.01-27.54 356.2-27.19 355.4-26.83 354.88-26.32 354.37-25.81 354.01-24.93 353.64-24.05 353.46-23.33 353.27-22.61 353.18-21.5 353.08-20.39 353.07-19.75 353.05-19.12 353.05-18.07L353.05-18.07Q353.05-17.75 353.08-17.29 353.1-16.82 353.1-16.65L353.1-16.65 353.1-15.92Q353.1-15.14 353.13-14.62 353.15-14.11 353.26-13.31 353.37-12.5 353.57-11.95 353.76-11.4 354.14-10.78 354.52-10.16 355.07-9.78 355.62-9.4 356.45-9.14 357.28-8.89 358.33-8.89L358.33-8.89Q361.04-8.89 362.77-9.42L362.77-9.42 362.77-12.4 361.7-12.4 361.7-12.35 359.94-12.35Q359.74-12.35 359.24-12.33 358.74-12.3 358.42-12.3L358.42-12.3 357.55-13.28 357.55-20.02Q357.55-20.65 358.42-21.39L358.42-21.39 360.18-21.39Q362.01-21.39 364.63-21.34 367.24-21.29 368.63-21.29L368.63-21.29 370.58-21.29Q372-21.29 372.79-21.26 373.59-21.24 374.56-21.03 375.54-20.83 375.86-20.41L375.86-20.41Q375.86-17.21 375.71-11.08 375.56-4.96 375.56-2.2L375.56-2.2Q375.56-2.12 375.59-1.97 375.61-1.81 375.61-1.71L375.61-1.71 375.61-1.17Q374.78-0.2 370.19 0.54 365.6 1.27 362.48 1.27L362.48 1.27 361.84 1.27Q361.16 1.27 359.82 1.37 358.47 1.46 357.79 1.46L357.79 1.46Q347.95 1.46 342.74-3.8 337.53-9.06 337.53-18.26ZM379.76-0.88L379.76-0.88 379.76-1.81Q379.76-5.98 379.86-14.14 379.96-22.29 379.96-26.46L379.96-26.46 379.96-36.57 408.37-36.57 408.37-28.56Q408.37-28.49 408.37-28.2 408.37-27.91 408.37-27.81 408.37-27.71 408.35-27.45 408.32-27.2 408.26-27.1 408.2-27 408.09-26.82 407.98-26.64 407.84-26.56 407.69-26.49 407.45-26.43 407.2-26.37 406.91-26.37L406.91-26.37 406.23-26.37Q399.9-26.37 394.7-26.56L394.7-26.56Q394.65-26.17 394.54-25.35 394.43-24.54 394.37-23.91 394.31-23.29 394.31-22.71L394.31-22.71 405.93-22.71Q406.66-22.71 406.91-22.51 407.15-22.31 407.15-21.88L407.15-21.88Q407.15-21.75 407.13-21.48 407.1-21.22 407.1-21.09L407.1-21.09Q407.1-19.92 407.18-17.63 407.25-15.33 407.25-14.16L407.25-14.16Q407.18-13.67 406.86-13.67L406.86-13.67Q406.71-13.67 406.62-13.77L406.62-13.77Q398.9-13.38 395.19-13.38L395.19-13.38 394.56-13.38 394.56-9.86Q396.73-9.86 400.84-10.06 404.96-10.25 407.01-10.25L407.01-10.25Q408.62-10.25 408.86-9.57L408.86-9.57 408.86-7.71Q408.86-6.54 408.91-4.25 408.96-1.95 408.96-0.78L408.96-0.78Q408.96 0.44 407.98 0.44L407.98 0.44Q406.71 0.44 404.08 0.42 401.44 0.39 400.07 0.39L400.07 0.39Q396.56 0.39 390.01 0.57 383.47 0.76 380.54 0.78L380.54 0.78 379.86 0Q379.76-0.68 379.76-0.88ZM447.29 0.1L447.29 0.1Q446.75 0.63 445.03 0.73 443.31 0.83 440.79 0.68 438.28 0.54 438.11 0.54L438.11 0.54Q436.45 0.54 435.71 0.49L435.71 0.49 433.27 0.49Q432.74 0.32 432.37-1.11 432-2.54 431.65-5.21 431.3-7.89 431.27-8.06L431.27-8.06Q431.17-10.47 430.49-11.24 429.81-12.01 428-12.01L428-12.01 426.93-12.01 426.93-0.1Q426.88 0.2 426.41 0.39 425.95 0.59 425.08 0.65 424.22 0.71 423.54 0.72 422.87 0.73 421.77 0.71 420.68 0.68 420.43 0.68L420.43 0.68 416.92 0.68Q413.94 0.68 412.42 0.73L412.42 0.73Q412.08 0.59 411.74 0.39L411.74 0.39 411.74-36.04Q411.74-36.72 413.69-36.72L413.69-36.72 434.98-36.72Q440.52-36.57 443.42-34.08 446.31-31.59 446.31-27.05L446.31-27.05Q446.31-21.14 440.35-18.41L440.35-18.41Q441.45-18.07 442.33-17.46 443.21-16.85 443.8-16.15 444.38-15.45 444.82-14.48 445.26-13.5 445.5-12.65 445.75-11.79 445.93-10.62 446.12-9.45 446.19-8.59 446.26-7.74 446.37-6.56 446.48-5.37 446.55-4.69L446.55-4.69 446.55-2.54Q446.63-2.15 447.01-1.44 447.38-0.73 447.48-0.39L447.48-0.39Q447.48 0.1 447.29 0.1ZM426.78-26.37L426.78-26.37Q426.78-24.9 426.8-24.19 426.83-23.49 427.07-22.34 427.32-21.19 427.8-20.7L427.8-20.7Q428.83-20.7 429.75-20.92 430.66-21.14 431.52-21.63 432.37-22.12 432.87-23.08 433.37-24.05 433.37-25.39L433.37-25.39Q433.37-26.15 433.1-26.72 432.83-27.29 432.32-27.64 431.81-27.98 431.31-28.19 430.81-28.39 430.09-28.48 429.37-28.56 428.95-28.59 428.54-28.61 427.95-28.61L427.95-28.61 427.37-28.61Q427-28.44 426.89-27.93 426.78-27.42 426.78-26.37Z" opacity="1" transform="matrix(1,0,0,1,0,0)" fill="#ffffff" class="undefined-text-0" data-fill-palette-color="primary" id="text-0"></path></svg></g></svg></g></svg></g></svg></g><g transform="matrix(1,0,0,1,173.4650019475182,0)"><svg viewBox="0 0 50.56759610496354 48.1478012776627" height="48.1478012776627" width="50.56759610496354"><g><svg xmlns:x="http://ns.adobe.com/Extensibility/1.0/" xmlns:i="http://ns.adobe.com/AdobeIllustrator/10.0/" xmlns:graph="http://ns.adobe.com/Graphs/1.0/" xmlns="http://www.w3.org/2000/svg" xmlns:xlink="http://www.w3.org/1999/xlink" xmlns:a="http://ns.adobe.com/AdobeSVGViewerExtensions/3.0/" version="1.0" x="8" y="0" viewBox="17.691999435424805 4.998998641967773 64.61599731445312 90.0009994506836" enable-background="new 0 0 100 100" xml:space="preserve" height="48.1478012776627" width="34.56759610496354" class="icon-icon-0" data-fill-palette-color="accent" id="icon-0"><g fill="#ffffff" data-fill-palette-color="accent"><circle cx="50" cy="25.769" r="21" fill="#ffffff" data-fill-palette-color="accent"></circle><path d="M75.385 41.923h-5.803C64.926 47.561 57.883 51.154 50 51.154s-14.926-3.594-19.582-9.231h-5.803c-3.823 0-6.923 3.1-6.923 6.923L24.615 95h50.77l6.923-46.154C82.308 45.022 79.208 41.923 75.385 41.923zM50 92.692l-6.527-6.923 5.554-25.526c-1.438-0.421-2.488-1.747-2.488-3.32 0-1.911 1.55-3.462 3.462-3.462s3.462 1.551 3.462 3.462c0 1.573-1.051 2.899-2.488 3.32l5.554 25.526L50 92.692z" fill="#ffffff" data-fill-palette-color="accent"></path></g></svg></g></svg></g><g><rect width="96.93188194751822" height="3.1418367639294797" y="44.00596451373322" x="224.03259805248175" fill="#ffffff" data-fill-palette-color="secondary"></rect><rect width="96.93188194751822" height="3.1418367639294797" y="44.00596451373322" x="76.53311999999997" fill="#ffffff" data-fill-palette-color="secondary"></rect></g></svg></g></svg><rect width="395.52" height="102.06792500593568" fill="none" stroke="none" visibility="hidden"></rect></g></svg></g></svg>